<svg xmlns="http://www.w3.org/2000/svg" width="57.122" height="54.555" viewBox="0 0 57.122 54.555">
  <g id="noun_Danger_1259512" transform="matrix(0.914, -0.407, 0.407, 0.914, -4.411, 12.401)">
    <path id="Path_308" data-name="Path 308" d="M45.907,41.423,27.12,8.883a3.524,3.524,0,0,0-6.1,0L2.13,41.594a3.524,3.524,0,0,0,3.053,5.287H42.959a3.525,3.525,0,0,0,2.947-5.458ZM24.188,43.789a1.5,1.5,0,0,1-1.61-1.376,1.572,1.572,0,0,1,0-.234l.126-1.606a1.372,1.372,0,0,1,2.735,0l.126,1.606A1.5,1.5,0,0,1,24.188,43.789Zm1.855-27.1-.6,19.144a1.368,1.368,0,0,1-2.734,0l-.6-19.144a1.973,1.973,0,1,1,3.944-.124C26.044,16.6,26.044,16.65,26.043,16.689Z" transform="translate(0 0)" fill="#f93549"/>
  </g>
</svg>
