<svg xmlns="http://www.w3.org/2000/svg" width="97.512" height="93.129" viewBox="0 0 97.512 93.129">
  <g id="noun_Danger_1259512" transform="matrix(0.914, -0.407, 0.407, 0.914, -4.411, 25.293)">
    <path id="Path_308" data-name="Path 308" d="M77.194,65.677,45.123,10.129a6.016,6.016,0,0,0-10.42,0L2.464,65.969a6.017,6.017,0,0,0,5.211,9.025H72.163a6.017,6.017,0,0,0,5.031-9.317Zm-37.076,4.04a2.557,2.557,0,0,1-2.749-2.349,2.684,2.684,0,0,1,0-.4l.214-2.742a2.342,2.342,0,0,1,4.669,0l.214,2.742A2.555,2.555,0,0,1,40.118,69.717Zm3.167-46.262-1.032,32.68a2.335,2.335,0,0,1-4.668,0l-1.032-32.68a3.368,3.368,0,1,1,6.732-.212C43.287,23.311,43.287,23.388,43.284,23.455Z" transform="translate(0)" fill="#f93549"/>
  </g>
</svg>
