<svg xmlns="http://www.w3.org/2000/svg" xmlns:xlink="http://www.w3.org/1999/xlink" width="198.712" height="253.378" viewBox="0 0 198.712 253.378">
  <defs>
    <linearGradient id="linear-gradient" x1="0.5" x2="0.5" y2="1" gradientUnits="objectBoundingBox">
      <stop offset="0" stop-color="#e0e622" stop-opacity="0"/>
      <stop offset="1" stop-color="#e0e622" stop-opacity="0.365"/>
    </linearGradient>
    <filter id="Ellipse_29" x="73.271" y="149.001" width="61" height="24" filterUnits="userSpaceOnUse">
      <feOffset dy="3" input="SourceAlpha"/>
      <feGaussianBlur stdDeviation="3" result="blur"/>
      <feFlood flood-opacity="0.992"/>
      <feComposite operator="in" in2="blur"/>
      <feComposite in="SourceGraphic"/>
    </filter>
  </defs>
  <g id="Group_143" data-name="Group 143" transform="translate(-1213.729 -263.999)">
    <g id="Group_142" data-name="Group 142">
      <g id="куб_1" data-name="куб 1" transform="translate(1259.456 401.964)" opacity="0.84">
        <path id="Path_239" data-name="Path 239" d="M58.386,109.649,0,86.385V17.34L58.386,40.591Z" transform="translate(0 5.764)" fill="#e0e622"/>
        <path id="Path_240" data-name="Path 240" d="M43.82,109.649l58.4-23.264V17.34L43.82,40.591Z" transform="translate(14.566 5.764)" fill="#cacb2c"/>
        <path id="Path_241" data-name="Path 241" d="M116.786,23.1l-58.4,23.1L0,23.1,58.386,0Z" fill="#f3eb4e"/>
      </g>
      <path id="Path_293" data-name="Path 293" d="M-16515,8582.937V8744.7l58.332,22.33,56.889-22.33v-161.76Z" transform="translate(17774.457 -8318.938)" fill="url(#linear-gradient)"/>
      <path id="Path_294" data-name="Path 294" d="M-16546.613,8653.327l45.73,59.94,58.328,22.33,56.891-22.33,37.763-59.94Z" transform="translate(17760.342 -8287.508)" fill="url(#linear-gradient)"/>
      <g id="noun_protection_2189124" transform="translate(1288.386 310.53)">
        <g id="Group_68" data-name="Group 68">
          <path id="Path_295" data-name="Path 295" d="M59.512,16.692A90.572,90.572,0,0,1,29.756,0,92.522,92.522,0,0,1,0,16.692V47.416c0,17.176,17.66,25.4,29.756,34.111,12.1-8.467,29.756-16.934,29.756-34.111Zm-39.675,22.5,5.322,5.322L39.675,30,43.3,33.385,25.16,51.529l-8.951-8.951Z" fill="#cdd313" fill-rule="evenodd"/>
        </g>
      </g>
    </g>
    <g transform="matrix(1, 0, 0, 1, 1213.73, 264)" filter="url(#Ellipse_29)">
      <ellipse id="Ellipse_29-2" data-name="Ellipse 29" cx="21.5" cy="3" rx="21.5" ry="3" transform="translate(82.27 155)" fill="rgba(0,0,0,0.16)" opacity="0.453"/>
    </g>
  </g>
</svg>
