<svg xmlns="http://www.w3.org/2000/svg" width="374.65" height="318.103" viewBox="0 0 374.65 318.103">
  <g id="Group_136" data-name="Group 136" transform="translate(-1344 -3036)">
    <g id="куб_3" data-name="куб 3" transform="translate(1587 3096)" opacity="0.84">
      <path id="Path_245" data-name="Path 245" d="M65.818,121.4,0,95.174V17.34L65.818,43.55Z" transform="translate(0 8.705)" fill="#f5b335"/>
      <path id="Path_246" data-name="Path 246" d="M43.82,121.4l65.833-26.225V17.34L43.82,43.55Z" transform="translate(21.998 8.705)" fill="#da982c"/>
      <path id="Path_247" data-name="Path 247" d="M131.65,26.045,65.818,52.089,0,26.045,65.818,0Z" fill="#fdc265"/>
    </g>
    <g id="куб_3-2" data-name="куб 3" transform="translate(1587 3181)" opacity="0.84">
      <path id="Path_245-2" data-name="Path 245" d="M65.818,121.4,0,95.174V17.34L65.818,43.55Z" transform="translate(0 8.705)" fill="#f5b335"/>
      <path id="Path_246-2" data-name="Path 246" d="M43.82,121.4l65.833-26.225V17.34L43.82,43.55Z" transform="translate(21.998 8.705)" fill="#da982c"/>
      <path id="Path_247-2" data-name="Path 247" d="M131.65,26.045,65.818,52.089,0,26.045,65.818,0Z" fill="#fdc265"/>
    </g>
    <g id="куб_3-3" data-name="куб 3" transform="translate(1344 3224)" opacity="0.84">
      <path id="Path_245-3" data-name="Path 245" d="M65.818,121.4,0,95.174V17.34L65.818,43.55Z" transform="translate(0 8.705)" fill="#f5b335"/>
      <path id="Path_246-3" data-name="Path 246" d="M43.82,121.4l65.833-26.225V17.34L43.82,43.55Z" transform="translate(21.998 8.705)" fill="#da982c"/>
      <path id="Path_247-3" data-name="Path 247" d="M131.65,26.045,65.818,52.089,0,26.045,65.818,0Z" fill="#fdc265"/>
    </g>
    <g id="куб_1" data-name="куб 1" transform="translate(1484 3036)" opacity="0.84">
      <path id="Path_239" data-name="Path 239" d="M65.818,121.4,0,95.174V17.34L65.818,43.55Z" transform="translate(0 8.705)" fill="#e0e622"/>
      <path id="Path_240" data-name="Path 240" d="M43.82,121.4l65.833-26.225V17.34L43.82,43.55Z" transform="translate(21.998 8.705)" fill="#cacb2c"/>
      <path id="Path_241" data-name="Path 241" d="M131.65,26.045,65.818,52.089,0,26.045,65.818,0Z" fill="#f3eb4e"/>
    </g>
    <g id="куб_1-2" data-name="куб 1" transform="translate(1484 3204)" opacity="0.84">
      <path id="Path_239-2" data-name="Path 239" d="M65.818,121.4,0,95.174V17.34L65.818,43.55Z" transform="translate(0 8.705)" fill="#e0e622"/>
      <path id="Path_240-2" data-name="Path 240" d="M43.82,121.4l65.833-26.225V17.34L43.82,43.55Z" transform="translate(21.998 8.705)" fill="#cacb2c"/>
      <path id="Path_241-2" data-name="Path 241" d="M131.65,26.045,65.818,52.089,0,26.045,65.818,0Z" fill="#f3eb4e"/>
    </g>
    <g id="куб_1-3" data-name="куб 1" transform="translate(1484 3121)" opacity="0.84">
      <path id="Path_239-3" data-name="Path 239" d="M65.818,121.4,0,95.174V17.34L65.818,43.55Z" transform="translate(0 8.705)" fill="#e0e622"/>
      <path id="Path_240-3" data-name="Path 240" d="M43.82,121.4l65.833-26.225V17.34L43.82,43.55Z" transform="translate(21.998 8.705)" fill="#cacb2c"/>
      <path id="Path_241-3" data-name="Path 241" d="M131.65,26.045,65.818,52.089,0,26.045,65.818,0Z" fill="#f3eb4e"/>
    </g>
  </g>
</svg>
