<svg xmlns="http://www.w3.org/2000/svg" width="131.65" height="218.104" viewBox="0 0 131.65 218.104">
  <g id="Group_134" data-name="Group 134" transform="translate(-38.35 -8822)">
    <g id="куб_1" data-name="куб 1" transform="translate(38.35 8822)" opacity="0.84">
      <path id="Path_239" data-name="Path 239" d="M65.818,121.4,0,95.174V17.34L65.818,43.55Z" transform="translate(0 8.705)" fill="#e0e622"/>
      <path id="Path_240" data-name="Path 240" d="M43.82,121.4l65.833-26.225V17.34L43.82,43.55Z" transform="translate(21.998 8.705)" fill="#cacb2c"/>
      <path id="Path_241" data-name="Path 241" d="M131.65,26.045,65.818,52.089,0,26.045,65.818,0Z" fill="#f3eb4e"/>
    </g>
    <g id="куб_1-2" data-name="куб 1" transform="translate(38.35 8910)" opacity="0.84">
      <path id="Path_239-2" data-name="Path 239" d="M65.818,121.4,0,95.174V17.34L65.818,43.55Z" transform="translate(0 8.705)" fill="#e0e622"/>
      <path id="Path_240-2" data-name="Path 240" d="M43.82,121.4l65.833-26.225V17.34L43.82,43.55Z" transform="translate(21.998 8.705)" fill="#cacb2c"/>
      <path id="Path_241-2" data-name="Path 241" d="M131.65,26.045,65.818,52.089,0,26.045,65.818,0Z" fill="#f3eb4e"/>
    </g>
  </g>
</svg>
