<svg xmlns="http://www.w3.org/2000/svg" width="407.65" height="214.103" viewBox="0 0 407.65 214.103">
  <g id="Group_135" data-name="Group 135" transform="translate(-749 -3140)">
    <g id="куб_3" data-name="куб 3" transform="translate(887 3140)" opacity="0.84">
      <path id="Path_245" data-name="Path 245" d="M65.818,121.4,0,95.174V17.34L65.818,43.55Z" transform="translate(0 8.705)" fill="#f5b335"/>
      <path id="Path_246" data-name="Path 246" d="M43.82,121.4l65.833-26.225V17.34L43.82,43.55Z" transform="translate(21.998 8.705)" fill="#da982c"/>
      <path id="Path_247" data-name="Path 247" d="M131.65,26.045,65.818,52.089,0,26.045,65.818,0Z" fill="#fdc265"/>
    </g>
    <g id="куб_3-2" data-name="куб 3" transform="translate(1025 3224)" opacity="0.84">
      <path id="Path_245-2" data-name="Path 245" d="M65.818,121.4,0,95.174V17.34L65.818,43.55Z" transform="translate(0 8.705)" fill="#f5b335"/>
      <path id="Path_246-2" data-name="Path 246" d="M43.82,121.4l65.833-26.225V17.34L43.82,43.55Z" transform="translate(21.998 8.705)" fill="#da982c"/>
      <path id="Path_247-2" data-name="Path 247" d="M131.65,26.045,65.818,52.089,0,26.045,65.818,0Z" fill="#fdc265"/>
    </g>
    <g id="куб_1" data-name="куб 1" transform="translate(749 3224)" opacity="0.84">
      <path id="Path_239" data-name="Path 239" d="M65.818,121.4,0,95.174V17.34L65.818,43.55Z" transform="translate(0 8.705)" fill="#e0e622"/>
      <path id="Path_240" data-name="Path 240" d="M43.82,121.4l65.833-26.225V17.34L43.82,43.55Z" transform="translate(21.998 8.705)" fill="#cacb2c"/>
      <path id="Path_241" data-name="Path 241" d="M131.65,26.045,65.818,52.089,0,26.045,65.818,0Z" fill="#f3eb4e"/>
    </g>
    <g id="куб_3-3" data-name="куб 3" transform="translate(887 3224)" opacity="0.84">
      <path id="Path_245-3" data-name="Path 245" d="M65.818,121.4,0,95.174V17.34L65.818,43.55Z" transform="translate(0 8.705)" fill="#f5b335"/>
      <path id="Path_246-3" data-name="Path 246" d="M43.82,121.4l65.833-26.225V17.34L43.82,43.55Z" transform="translate(21.998 8.705)" fill="#da982c"/>
      <path id="Path_247-3" data-name="Path 247" d="M131.65,26.045,65.818,52.089,0,26.045,65.818,0Z" fill="#fdc265"/>
    </g>
  </g>
</svg>
