<svg xmlns="http://www.w3.org/2000/svg" width="47" height="46.983" viewBox="0 0 47 46.983">
  <g id="noun_Free_338463" transform="translate(-5 -5)">
    <g id="Group_49" data-name="Group 49" transform="translate(5 5)">
      <path id="Path_253" data-name="Path 253" d="M39.888,33.381a2.042,2.042,0,1,0-2.042-2.042,2.045,2.045,0,0,0,2.042,2.042Zm9.628,2.41H37.937l-3.97-4.452,3.97-4.452H49.515ZM50.758,24.4H49.93V14.257a1.244,1.244,0,0,0-1.242-1.242H46.306V8.563a1.244,1.244,0,0,0-1.242-1.242H39.275a1.242,1.242,0,1,0,0,2.485h4.546v3.209H36.876a1.242,1.242,0,0,0,0,2.485H47.445v8.9H37.38a1.24,1.24,0,0,0-.928.416l-5.079,5.693a1.243,1.243,0,0,0,0,1.654l5.079,5.694a1.246,1.246,0,0,0,.928.415H47.445v8.9H22.483a1.242,1.242,0,1,0,0,2.484h26.2A1.244,1.244,0,0,0,49.93,48.42V38.275h.828A1.244,1.244,0,0,0,52,37.032V25.645A1.243,1.243,0,0,0,50.758,24.4ZM36.286,5.1A1.228,1.228,0,0,0,35.8,5a1.241,1.241,0,0,0-1.145.761l-18.747,44.5a1.242,1.242,0,0,0,2.29.965l18.747-44.5A1.242,1.242,0,0,0,36.286,5.1Zm-22.7,42.079H11.419a3.939,3.939,0,0,1-3.934-3.934V15.181a4.082,4.082,0,0,0,1.58.318H27.977a1.242,1.242,0,1,0,0-2.485H9.061a1.578,1.578,0,0,1-1.577-1.576v-.053a1.582,1.582,0,0,1,1.58-1.58H30.376a1.242,1.242,0,1,0,0-2.485H9.065A4.064,4.064,0,0,0,5,11.379V43.244a6.426,6.426,0,0,0,6.419,6.419h2.165a1.242,1.242,0,1,0,0-2.484Z" transform="translate(-5 -5)" fill="#e0e622" fill-rule="evenodd"/>
    </g>
  </g>
</svg>
