<svg xmlns="http://www.w3.org/2000/svg" xmlns:xlink="http://www.w3.org/1999/xlink" width="57" height="57" viewBox="0 0 57 57">
  <defs>
    <clipPath id="clip-path">
      <rect id="Rectangle_160" data-name="Rectangle 160" width="57" height="57" transform="translate(282 2746)" fill="#e0e622" stroke="#707070" stroke-width="1"/>
    </clipPath>
  </defs>
  <g id="Mask_Group_1" data-name="Mask Group 1" transform="translate(-282 -2746)" clip-path="url(#clip-path)">
    <g id="online" transform="translate(282 2753.08)">
      <path id="Path_248" data-name="Path 248" d="M6.976,5.088A1.888,1.888,0,1,0,8.864,6.976,1.894,1.894,0,0,0,6.976,5.088m0,5.664a3.776,3.776,0,1,1,3.776-3.776,3.787,3.787,0,0,1-3.776,3.776" transform="translate(-0.368 -0.368)" fill="#e0e622" fill-rule="evenodd"/>
      <path id="Path_249" data-name="Path 249" d="M16.576,5.088a1.888,1.888,0,1,0,1.888,1.888,1.894,1.894,0,0,0-1.888-1.888m0,5.664a3.776,3.776,0,1,1,3.776-3.776,3.787,3.787,0,0,1-3.776,3.776" transform="translate(-1.472 -0.368)" fill="#e0e622" fill-rule="evenodd"/>
      <path id="Path_250" data-name="Path 250" d="M26.176,5.088a1.888,1.888,0,1,0,1.888,1.888,1.894,1.894,0,0,0-1.888-1.888m0,5.664a3.776,3.776,0,1,1,3.776-3.776,3.787,3.787,0,0,1-3.776,3.776" transform="translate(-2.576 -0.368)" fill="#e0e622" fill-rule="evenodd"/>
      <path id="Path_251" data-name="Path 251" d="M1.888,11.328H54.753V2.738a.846.846,0,0,0-.85-.85H2.738a.846.846,0,0,0-.85.85Zm54.753,1.888H0V2.738A2.74,2.74,0,0,1,2.738,0H54a2.721,2.721,0,0,1,2.643,2.738Z" fill="#e0e622" fill-rule="evenodd"/>
      <path id="Path_252" data-name="Path 252" d="M0,12.8V40.932a2.982,2.982,0,0,0,3.021,3.021h50.6a2.982,2.982,0,0,0,3.021-3.021V12.8ZM54.753,40.932a1.091,1.091,0,0,1-1.133,1.133H3.021a1.091,1.091,0,0,1-1.133-1.133V14.688H54.753Z" transform="translate(0 -1.472)" fill="#e0e622" fill-rule="evenodd"/>
    </g>
  </g>
</svg>
