<svg xmlns="http://www.w3.org/2000/svg" width="47" height="43.863" viewBox="0 0 47 43.863">
  <g id="noun_click_184314" transform="translate(249.244 -382.012)">
    <g id="Group_50" data-name="Group 50" transform="translate(-239.07 391.143)">
      <path id="Path_254" data-name="Path 254" d="M-206.379,433.145a11.206,11.206,0,0,1-4.9-1.113l-16.869-7.961a4.362,4.362,0,0,1-2.171-2.394,4.607,4.607,0,0,1,.167-3.229.862.862,0,0,1,.445-.445c1.726-1.058,5.178-1.559,7.182-.668l-7.794-12.526a4.268,4.268,0,0,1-.557-3.173,4.115,4.115,0,0,1,1.893-2.617h0a4.23,4.23,0,0,1,5.79,1.392l3.452,5.623a4.15,4.15,0,0,1,.946-.779,4.089,4.089,0,0,1,4.064-.167,4.166,4.166,0,0,1,1.5-1.615,4.088,4.088,0,0,1,4.064-.167,4.166,4.166,0,0,1,1.5-1.615,4.406,4.406,0,0,1,3.34-.5,4.092,4.092,0,0,1,2.505,1.893l6.18,11.246c3.006,5.512,1.058,11.469-2.227,14.976A11.871,11.871,0,0,1-206.379,433.145Zm-21.991-13.528a2.2,2.2,0,0,0,.056,1.336,2,2,0,0,0,1.058,1.169l16.869,7.961c4.565,2.171,8.741.167,11.134-2.338,2.728-2.951,4.454-7.961,1.893-12.526l-6.235-11.3a1.739,1.739,0,0,0-1.169-.891,2.333,2.333,0,0,0-1.726.223,1.992,1.992,0,0,0-1,1.67,1.078,1.078,0,0,1-.724.946,1.126,1.126,0,0,1-1.113-.278,2.2,2.2,0,0,0-2.728-.445,1.992,1.992,0,0,0-1,1.67,1.078,1.078,0,0,1-.724.946,1.126,1.126,0,0,1-1.113-.278,2.2,2.2,0,0,0-2.728-.445,1.946,1.946,0,0,0-.946,1.392,1.154,1.154,0,0,1-.835.835,1.011,1.011,0,0,1-1.058-.5l-4.454-7.182a2.09,2.09,0,0,0-2.951-.668,1.956,1.956,0,0,0-.946,1.336,2.323,2.323,0,0,0,.223,1.615l9.631,15.533a1.187,1.187,0,0,1-.111,1.28,1.009,1.009,0,0,1-1.28.223l-3.006-1.726A7.872,7.872,0,0,0-228.37,419.617Z" transform="translate(230.969 -398.413)" fill="#e0e622"/>
    </g>
    <g id="Group_51" data-name="Group 51" transform="translate(-246.925 399.22)">
      <path id="Path_255" data-name="Path 255" d="M-244.256,417.7a.869.869,0,0,1-.724-.445.829.829,0,0,1,.334-1.113l5.679-3.118a.829.829,0,0,1,1.113.334.829.829,0,0,1-.334,1.113l-5.679,3.118A.8.8,0,0,1-244.256,417.7Z" transform="translate(245.079 -412.921)" fill="#e0e622"/>
    </g>
    <g id="Group_52" data-name="Group 52" transform="translate(-228.609 389.143)">
      <path id="Path_256" data-name="Path 256" d="M-211.356,399.6a.869.869,0,0,1-.724-.445.829.829,0,0,1,.334-1.113l5.679-3.118a.829.829,0,0,1,1.113.334.829.829,0,0,1-.334,1.113l-5.679,3.118A1.032,1.032,0,0,1-211.356,399.6Z" transform="translate(212.179 -394.821)" fill="#e0e622"/>
    </g>
    <g id="Group_53" data-name="Group 53" transform="translate(-232.901 382.012)">
      <path id="Path_257" data-name="Path 257" d="M-219.06,389.966a.335.335,0,0,1-.223-.056.814.814,0,0,1-.557-1.058l1.782-6.235a.814.814,0,0,1,1.058-.557.814.814,0,0,1,.557,1.058l-1.782,6.235A.836.836,0,0,1-219.06,389.966Z" transform="translate(219.888 -382.012)" fill="#e0e622"/>
    </g>
    <g id="Group_54" data-name="Group 54" transform="translate(-242.652 383.37)">
      <path id="Path_258" data-name="Path 258" d="M-233.171,391.66a.952.952,0,0,1-.724-.39l-3.4-5.512a.891.891,0,0,1,.278-1.169.839.839,0,0,1,1.169.278l3.4,5.512a.891.891,0,0,1-.278,1.169A1.31,1.31,0,0,1-233.171,391.66Z" transform="translate(237.404 -384.452)" fill="#e0e622"/>
    </g>
    <g id="Group_55" data-name="Group 55" transform="translate(-249.244 391.835)">
      <path id="Path_259" data-name="Path 259" d="M-242.093,402.8h-.223l-6.291-1.5a.83.83,0,0,1-.612-1,.83.83,0,0,1,1-.612l6.291,1.5a.83.83,0,0,1,.612,1A.785.785,0,0,1-242.093,402.8Z" transform="translate(249.244 -399.656)" fill="#e0e622"/>
    </g>
  </g>
</svg>
