<svg id="pdf-file-format-symbol" xmlns="http://www.w3.org/2000/svg" width="29.585" height="33.406" viewBox="0 0 29.585 33.406">
  <path id="Path_88" data-name="Path 88" d="M119.477,259.977c0-.9-.625-1.436-1.727-1.436a3.776,3.776,0,0,0-.914.087v2.889a3.429,3.429,0,0,0,.739.057C118.752,261.574,119.477,260.979,119.477,259.977Z" transform="translate(-111.661 -242.86)" fill="#e0e622"/>
  <path id="Path_89" data-name="Path 89" d="M257.358,259.019a4.606,4.606,0,0,0-1,.087v6.4a4.012,4.012,0,0,0,.77.044c2,.014,3.309-1.088,3.309-3.425A2.805,2.805,0,0,0,257.358,259.019Z" transform="translate(-242.719 -243.309)" fill="#e0e622"/>
  <path id="Path_90" data-name="Path 90" d="M59.216,11.949h-.8V8.079a.562.562,0,0,0-.007-.073.643.643,0,0,0-.155-.424L51.811.224l-.005,0a.65.65,0,0,0-.13-.109C51.661.1,51.647.093,51.633.085A.675.675,0,0,0,51.5.03L51.468.019A.653.653,0,0,0,51.318,0H35.488a1.311,1.311,0,0,0-1.31,1.31V11.949h-.8A1.872,1.872,0,0,0,31.5,13.821v9.737a1.873,1.873,0,0,0,1.872,1.872h.8V32.1a1.311,1.311,0,0,0,1.31,1.31H57.1a1.312,1.312,0,0,0,1.31-1.31V25.431h.8a1.873,1.873,0,0,0,1.872-1.872V13.822A1.873,1.873,0,0,0,59.216,11.949ZM35.488,1.31H50.663v6.7a.655.655,0,0,0,.655.655H57.1V11.95H35.488ZM51.57,18.742A4.958,4.958,0,0,1,49.944,22.7a7.018,7.018,0,0,1-4.512,1.262,19.228,19.228,0,0,1-2.511-.145V14.214a19.792,19.792,0,0,1,2.99-.2,6.3,6.3,0,0,1,4.005,1.045A4.329,4.329,0,0,1,51.57,18.742ZM34.488,23.866V14.214a18.182,18.182,0,0,1,2.99-.2,4.689,4.689,0,0,1,2.99.784,2.858,2.858,0,0,1,1.044,2.264,3.123,3.123,0,0,1-.9,2.322,4.534,4.534,0,0,1-3.178,1.031,5.538,5.538,0,0,1-.754-.044v3.5H34.488ZM57.1,31.741H35.488V25.431H57.1v6.311ZM59,15.9h-3.76v2.235h3.512v1.8H55.243v3.933H53.023V14.084H59Z" transform="translate(-31.504)" fill="#e0e622"/>
</svg>
